<?xml version="1.0" standalone="no"?>
<!DOCTYPE svg PUBLIC "-//W3C//DTD SVG 20010904//EN"
 "http://www.w3.org/TR/2001/REC-SVG-20010904/DTD/svg10.dtd">
<svg version="1.0" xmlns="http://www.w3.org/2000/svg"
 width="260.000000pt" height="260.000000pt" viewBox="0 0 260.000000 260.000000"
 preserveAspectRatio="xMidYMid meet">
<metadata>
Created by potrace 1.11, written by Peter Selinger 2001-2013
</metadata>
<g transform="translate(0.000000,260.000000) scale(0.100000,-0.100000)"
fill="#000000" stroke="none">
<path d="M0 1300 l0 -1300 1300 0 1300 0 0 1300 0 1300 -1300 0 -1300 0 0
-1300z m1481 1055 c322 -56 601 -259 755 -549 169 -318 167 -691 -5 -1011
l-48 -90 -212 -3 c-116 -1 -211 0 -211 4 0 3 81 148 180 323 196 344 207 372
175 446 l-16 40 -20 -27 c-57 -78 -42 -88 -164 99 -291 445 -293 448 -334 471
-21 12 -53 22 -70 22 l-31 0 20 -40 c11 -21 20 -41 20 -44 0 -2 -156 -6 -347
-8 -384 -3 -393 -5 -446 -67 -15 -18 -27 -37 -27 -42 0 -5 23 -9 50 -9 28 0
50 -2 50 -4 0 -2 -72 -146 -160 -319 -137 -270 -160 -321 -160 -360 0 -50 14
-97 29 -97 5 0 20 19 34 42 l25 42 194 -294 c165 -250 201 -298 235 -317 22
-13 55 -23 73 -23 l32 0 -26 46 c-14 26 -26 48 -26 50 0 2 241 4 535 4 294 0
535 -4 535 -8 0 -4 -28 -37 -62 -71 -208 -210 -469 -321 -758 -321 -597 0
-1070 470 -1070 1065 0 516 368 959 873 1050 98 18 277 18 378 0z"/>
</g>
</svg>
